<svg xmlns:xlink="http://www.w3.org/1999/xlink" width="22" height="18" viewBox="0 0 22 18" fill="none" xmlns="http://www.w3.org/2000/svg" class="Header-MenuIcon"><path fill-rule="evenodd" clip-rule="evenodd" d="M2.069 1.3H20.2508C20.7529 1.3 21.1599 1.00899 21.1599 0.65C21.1599 0.291015 20.7529 0 20.2508 0H2.069C1.56693 0 1.15991 0.291015 1.15991 0.65C1.15991 1.00899 1.56693 1.3 2.069 1.3Z" fill="#FFFFFF"></path><path fill-rule="evenodd" clip-rule="evenodd" d="M20.2508 8.30005H2.069C1.56693 8.30005 1.15991 8.59106 1.15991 8.95005C1.15991 9.30903 1.56693 9.60005 2.069 9.60005H20.2508C20.7529 9.60005 21.1599 9.30903 21.1599 8.95005C21.1599 8.59106 20.7529 8.30005 20.2508 8.30005Z" fill="#FFFFFF"></path><path fill-rule="evenodd" clip-rule="evenodd" d="M20.2508 16.6001H2.069C1.56693 16.6001 1.15991 16.8911 1.15991 17.2501C1.15991 17.6091 1.56693 17.9001 2.069 17.9001H20.2508C20.7529 17.9001 21.1599 17.6091 21.1599 17.2501C21.1599 16.8911 20.7529 16.6001 20.2508 16.6001Z" fill="#FFFFFF"></path></svg>