<svg width="100" height="82" viewBox="0 0 100 82" fill="none" xmlns="http://www.w3.org/2000/svg">
<path opacity="0.1" fill-rule="evenodd" clip-rule="evenodd" d="M89.7725 18.2086C98.1312 24.2684 101.56 36.6446 99.34 46.6816C97.1937 56.3844 86.7628 61.4454 78.8493 67.5894C72.9389 72.1782 66.5799 75.5762 59.3849 77.7023C52.2167 79.8206 44.4171 82.7865 37.6064 79.7768C30.9287 76.8258 30.4749 67.5381 25.1598 62.5779C17.4904 55.4206 1.54765 55.1063 0.0907272 44.7662C-1.28694 34.9886 13.3858 30.9035 19.6032 23.1415C25.6385 15.6068 26.2605 1.3478 35.8854 0.079212C45.997 -1.2535 49.9604 14.6273 59.5987 17.87C69.3468 21.1496 81.4762 12.194 89.7725 18.2086Z" fill="#BBD422"/>
<path d="M47.3648 46.4712C45.5375 45.1718 44.2908 43.6673 43.5565 41.7353C41.9853 37.6149 42.7538 30.93 46.4255 27.7842C48.7823 25.7667 51.5489 24.9461 54.5546 25.0657C58.6703 25.2196 62.0688 26.7754 64.1181 30.571C65.1599 32.4858 65.5014 34.5888 65.5868 36.743C65.621 37.5978 65.5868 38.4356 65.5868 39.3759C66.0992 39.3759 66.6969 39.3759 67.4142 39.3759C67.5679 34.4691 67.158 29.7674 63.5204 26.0232C61.8126 24.2622 59.6267 23.4073 57.2529 22.997C53.7519 22.3986 50.3705 22.7235 47.2624 24.5186C43.2491 26.8438 41.046 30.2803 41.0802 35.0162C41.0973 36.9482 41.0973 38.8972 41.0802 40.8292C41.0802 41.9234 40.5679 42.5389 39.7311 42.556C38.8772 42.5731 38.3307 41.9063 38.3307 40.795C38.3307 34.4349 38.3307 28.0919 38.3307 21.7318C38.3307 21.4754 38.2965 21.2018 38.3819 20.9625C38.621 20.2957 39.0992 19.9537 39.8164 20.005C40.5849 20.0734 41.029 20.5179 41.0631 21.2702C41.1144 22.5183 41.0802 23.7322 41.0802 24.9632C41.0802 25.2709 41.1144 25.5616 41.1314 26.0061C41.8487 25.3051 42.4293 24.6725 43.0783 24.0912C46.4939 21.048 50.5242 19.8683 55.0328 20.0221C57.7994 20.1247 60.4464 20.6547 62.8715 22.0396C66.7311 24.2793 68.7121 27.8184 69.6684 32.0413C70.3174 34.9307 70.4028 37.8543 70.0441 40.7779C69.9246 41.8208 69.4806 42.214 68.4218 42.2311C67.3629 42.2311 66.3212 42.214 65.2624 42.2482C65.0062 42.2482 64.6134 42.3337 64.528 42.4876C63.7083 44.0605 62.5982 45.3599 61.0441 46.4199C61.3174 46.5567 61.454 46.6422 61.6077 46.6764C68.9512 48.8477 73.306 53.9255 75.4749 61.0549C76.0555 62.9527 76.3117 64.9359 76.6362 66.9021C76.8753 68.3724 76.3117 68.9879 74.8259 68.9879C70.5565 69.005 66.287 68.9879 62.0176 68.9879C52.676 68.9879 43.3515 68.9879 34.01 68.9879C33.7026 68.9879 33.3781 69.005 33.0707 68.9708C32.1656 68.8853 31.602 68.3553 31.6874 67.4663C32.5071 59.1572 35.4958 52.1474 43.3003 48.027C43.9322 47.7022 44.5982 47.4457 45.2472 47.1893C45.8961 46.9328 46.5451 46.7447 47.3648 46.4712ZM73.6817 66.184C73.6817 65.9105 73.7159 65.6882 73.6817 65.466C73.4597 64.3888 73.2889 63.2775 72.9815 62.2175C71.3933 56.7294 68.3193 52.4551 62.9227 50.1299C59.251 48.5399 55.3914 48.2493 51.4635 48.6254C47.7235 48.9844 44.2396 50.1299 41.3193 52.609C37.8696 55.5155 36.0081 59.3452 35.0176 63.6708C34.8297 64.4743 34.7273 65.3121 34.5906 66.2011C47.7235 66.184 60.6855 66.184 73.6817 66.184ZM61.3686 42.2824C60.8051 42.2653 60.5147 42.2311 60.2073 42.2311C58.1238 42.2311 56.0574 42.2311 53.9739 42.2311C53.1371 42.2311 52.6077 41.7182 52.5736 40.9318C52.5394 40.1282 53.0005 39.5982 53.8202 39.4956C54.0935 39.4614 54.3838 39.4785 54.6741 39.4785C57.0309 39.4785 59.3876 39.4614 61.7614 39.4956C62.4274 39.5127 62.7007 39.2392 62.7007 38.6237C62.7178 37.7175 62.7861 36.7943 62.7007 35.8881C62.5299 33.9904 62.0517 32.1781 60.788 30.6907C58.6191 28.1261 55.733 27.5619 52.5906 27.9722C49.4996 28.3826 47.2624 30.0581 46.2035 33.1013C45.4692 35.2043 45.3667 37.3927 45.8107 39.5811C46.1694 41.3421 47.0916 42.7782 48.5603 43.8553C51.9758 46.3686 56.843 46.2489 60.1219 43.5647C60.5147 43.2399 60.8563 42.8295 61.3686 42.2824Z" fill="#BBD422"/>
</svg>
