<svg xmlns:xlink="http://www.w3.org/1999/xlink" width="24" height="19" viewBox="0 0 24 19" fill="none" xmlns="http://www.w3.org/2000/svg"><path d="M9.11231 10.3262C9.3757 10.9746 9.6254 11.6307 9.90932 12.2671C10.0436 12.5631 10.3326 12.6461 10.6636 12.6452C13.7276 12.6384 16.7916 12.6452 19.8556 12.6392C20.1079 12.6392 20.3037 12.7162 20.4149 12.9497C20.448 13.021 20.4634 13.0992 20.46 13.1777C20.4566 13.2562 20.4344 13.3328 20.3953 13.4009C20.3561 13.4691 20.3012 13.5268 20.2351 13.5693C20.1691 13.6118 20.0938 13.6378 20.0156 13.6452C19.8308 13.6597 19.6453 13.652 19.4597 13.652C16.5949 13.652 13.7302 13.6307 10.8654 13.6632C9.60146 13.6768 9.08409 13.1294 8.72749 12.1696C8.25459 10.8865 7.83813 9.58967 7.40371 8.29628C6.99951 7.09071 6.60043 5.88343 6.20649 4.67445C5.85673 3.60774 5.51467 2.53591 5.16918 1.47006C5.05545 1.11934 4.91948 1.03722 4.53893 1.03722C3.21344 1.03722 1.88823 1.03465 0.563313 1.02952C0.25118 1.02952 0.035682 0.814808 0.0391026 0.529099C0.0389256 0.461135 0.0525196 0.39384 0.0790641 0.331278C0.105609 0.268716 0.144553 0.212184 0.193545 0.165095C0.242538 0.118006 0.300562 0.0813379 0.364114 0.0573038C0.427667 0.0332696 0.495431 0.0223684 0.563313 0.0252583C1.95209 0.0252583 3.34172 0.0184149 4.73135 0.0252583C5.38554 0.0252583 5.92856 0.485472 6.13551 1.1373C6.50323 2.30694 6.87779 3.47145 7.25919 4.63082C7.7338 6.08503 8.22124 7.53068 8.68901 8.98489C8.75571 9.19275 8.84294 9.25435 9.05758 9.25435C12.4497 9.2475 15.8418 9.24579 19.2339 9.24921C19.7975 9.24921 20.0814 9.06701 20.2943 8.5358C20.9038 7.01144 21.5101 5.48538 22.1133 3.95761C22.1988 3.74632 22.2757 3.5299 22.3698 3.32546C22.4553 3.1424 22.3698 3.04744 22.2065 3.01665C22.0451 2.99039 21.8817 2.97865 21.7182 2.98158C16.9863 2.98158 12.2544 2.97901 7.52258 2.97388C7.33495 2.96886 7.15189 2.91489 6.99152 2.81734C6.82049 2.71298 6.79569 2.50939 6.85983 2.31863C6.88423 2.22832 6.93518 2.14742 7.00608 2.08641C7.07698 2.0254 7.16456 1.9871 7.25748 1.97646C7.33558 1.96819 7.41413 1.96504 7.49264 1.96705C12.2524 1.96705 17.0128 1.96905 21.7738 1.97304C22.0784 1.97027 22.3814 2.01885 22.67 2.11675C23.3318 2.35541 23.5901 2.95591 23.3344 3.62057C22.9205 4.69412 22.4895 5.75911 22.0654 6.83181C21.7874 7.53154 21.5069 8.23041 21.2324 8.93185C20.9049 9.7676 20.2285 10.2577 19.3323 10.2595C16.0542 10.2674 12.7761 10.2692 9.49799 10.2646H9.18072L9.11231 10.3262Z" fill="#FAFBFB"></path><path d="M18.4811 18.0212C18.2149 18.0302 17.9496 17.985 17.7014 17.8884C17.4531 17.7918 17.2271 17.6457 17.037 17.4591C16.8468 17.2724 16.6966 17.0491 16.5954 16.8027C16.4941 16.5562 16.444 16.2917 16.448 16.0253C16.452 15.7589 16.51 15.4961 16.6186 15.2527C16.7272 15.0094 16.8841 14.7907 17.0797 14.6099C17.2754 14.4291 17.5057 14.2899 17.7567 14.2007C18.0078 14.1116 18.2743 14.0744 18.5401 14.0914C19.6013 14.0983 20.471 14.9947 20.4668 16.0785C20.4651 16.3369 20.4123 16.5923 20.3114 16.8301C20.2105 17.0679 20.0634 17.2833 19.8788 17.464C19.6942 17.6446 19.4756 17.7868 19.2357 17.8825C18.9958 17.9781 18.7393 18.0253 18.4811 18.0212ZM17.5575 16.0537C17.559 16.1783 17.5851 16.3014 17.6341 16.4159C17.6832 16.5304 17.7543 16.6341 17.8435 16.7212C17.9326 16.8082 18.038 16.8768 18.1536 16.9231C18.2693 16.9693 18.3929 16.9924 18.5174 16.9908C18.642 16.9893 18.765 16.9633 18.8795 16.9142C18.994 16.8651 19.0977 16.794 19.1847 16.7048C19.2716 16.6157 19.3402 16.5102 19.3865 16.3946C19.4327 16.2789 19.4558 16.1552 19.4543 16.0306C19.4512 15.779 19.3483 15.539 19.1683 15.3632C18.9883 15.1875 18.7459 15.0905 18.4943 15.0935C18.2428 15.0966 18.0028 15.1995 17.8271 15.3796C17.6514 15.5596 17.5545 15.8021 17.5575 16.0537Z" fill="#FAFBFB"></path><path d="M9.7692 18.0183C9.51084 18.0196 9.25474 17.9701 9.01553 17.8724C8.77633 17.7747 8.55871 17.6308 8.37511 17.449C8.1915 17.2672 8.04551 17.0509 7.94547 16.8126C7.84543 16.5743 7.79331 16.3187 7.79208 16.0602C7.78182 14.979 8.6823 14.0928 9.78887 14.0928C10.3089 14.0954 10.8066 14.3045 11.1725 14.6742C11.5384 15.0439 11.7425 15.5439 11.7399 16.0641C11.7373 16.5843 11.5282 17.0822 11.1586 17.4482C10.789 17.8142 10.2893 18.0183 9.7692 18.0157V18.0183ZM10.7047 16.0688C10.7084 15.9442 10.6871 15.82 10.6421 15.7038C10.5971 15.5875 10.5292 15.4814 10.4426 15.3917C10.356 15.3021 10.2523 15.2306 10.1377 15.1816C10.0231 15.1326 9.89984 15.1071 9.77519 15.1064C9.6502 15.1053 9.52621 15.1288 9.4103 15.1756C9.2944 15.2225 9.18884 15.2916 9.09966 15.3793C9.01049 15.4669 8.93944 15.5712 8.89057 15.6863C8.8417 15.8014 8.81597 15.9249 8.81484 16.05C8.81372 16.175 8.83723 16.299 8.88402 16.415C8.93082 16.5309 8.99998 16.6365 9.08757 16.7257C9.17516 16.8149 9.27945 16.886 9.3945 16.9349C9.50955 16.9837 9.63309 17.0095 9.75808 17.0106C9.8826 17.0129 10.0063 16.9902 10.1219 16.9437C10.2374 16.8973 10.3425 16.828 10.4308 16.7402C10.5191 16.6524 10.5888 16.5476 10.6359 16.4323C10.683 16.317 10.7064 16.1934 10.7047 16.0688Z" fill="#FAFBFB"></path></svg>