<svg width="100" height="77" viewBox="0 0 100 77" fill="none" xmlns="http://www.w3.org/2000/svg">
<path opacity="0.1" fill-rule="evenodd" clip-rule="evenodd" d="M99.7769 25.6615C98.2376 17.7995 93.2272 10.6474 85.4783 6.15013C77.5645 1.55717 67.0576 -1.62873 57.0841 0.883689C47.5406 3.28775 44.7193 13.6113 36.4857 18.4918C27.6072 23.7544 14.3561 22.7965 7.91418 30.0289C0.852003 37.9577 -2.2941 48.9826 1.85923 57.3671C5.96436 65.6544 18.3306 68.1751 28.4941 71.5746C36.9629 74.4072 45.9568 74.9777 55.3776 75.268C66.1968 75.6015 78.8333 79.6015 87.3155 73.3876C95.8798 67.1136 91.2159 56.2051 93.5376 47.313C95.4747 39.8941 101.194 32.8982 99.7769 25.6615Z" fill="#BBD422"/>
<rect x="23.78" y="17.415" width="51.17" height="34.17" rx="2.585" stroke="#BBD422" stroke-width="2.83"/>
<rect x="29.865" y="40.5" width="39" height="5" rx="0.5" fill="#F8FBE9" stroke="#BBD422"/>
<path d="M77.476 34.89C73.5031 34.55 69.8756 33.53 66.9391 32C63.3117 34.21 57.9569 35.23 51.9111 34.89C51.7384 34.89 51.5657 34.89 51.5657 34.89C51.2202 37.61 49.4928 61.92 67.9755 66C86.4582 61.75 84.3854 37.1 84.2126 34.72C82.1398 34.89 79.8943 35.06 77.476 34.89Z" fill="#F8FBE9" stroke="#BBD422" stroke-width="2.83"/>
<circle cx="67.865" cy="43.8889" r="4.44444" fill="#F8FBE9" stroke="#BBD422" stroke-width="0.888889"/>
<rect x="60.7539" y="44.7777" width="14.2222" height="9.77778" rx="0.444444" fill="#F8FBE9" stroke="#BBD422" stroke-width="0.888889"/>
<mask id="path-7-inside-1_596_451" fill="white">
<path fill-rule="evenodd" clip-rule="evenodd" d="M68.665 50.1113C68.9888 49.868 69.1983 49.4807 69.1983 49.0445C69.1983 48.3081 68.6013 47.7112 67.865 47.7112C67.1286 47.7112 66.5316 48.3081 66.5316 49.0445C66.5316 49.4808 66.7411 49.8681 67.065 50.1113V51.9777C67.065 52.2722 67.3038 52.511 67.5983 52.511H68.1316C68.4262 52.511 68.665 52.2722 68.665 51.9777V50.1113Z"/>
</mask>
<path fill-rule="evenodd" clip-rule="evenodd" d="M68.665 50.1113C68.9888 49.868 69.1983 49.4807 69.1983 49.0445C69.1983 48.3081 68.6013 47.7112 67.865 47.7112C67.1286 47.7112 66.5316 48.3081 66.5316 49.0445C66.5316 49.4808 66.7411 49.8681 67.065 50.1113V51.9777C67.065 52.2722 67.3038 52.511 67.5983 52.511H68.1316C68.4262 52.511 68.665 52.2722 68.665 51.9777V50.1113Z" fill="#F8FBE9"/>
<path d="M68.665 50.1113L68.3447 49.6849L68.1316 49.8449V50.1113H68.665ZM67.065 50.1113H67.5983V49.8449L67.3853 49.6849L67.065 50.1113ZM68.665 49.0445C68.665 49.3059 68.5402 49.538 68.3447 49.6849L68.9853 50.5377C69.4375 50.1981 69.7316 49.6556 69.7316 49.0445H68.665ZM67.865 48.2445C68.3068 48.2445 68.665 48.6027 68.665 49.0445H69.7316C69.7316 48.0136 68.8959 47.1778 67.865 47.1778V48.2445ZM67.065 49.0445C67.065 48.6027 67.4231 48.2445 67.865 48.2445V47.1778C66.834 47.1778 65.9983 48.0136 65.9983 49.0445H67.065ZM67.3853 49.6849C67.1898 49.538 67.065 49.3059 67.065 49.0445H65.9983C65.9983 49.6556 66.2925 50.1981 66.7447 50.5378L67.3853 49.6849ZM67.5983 51.9777V50.1113H66.5316V51.9777H67.5983ZM67.5983 51.9777H67.5983H66.5316C66.5316 52.5668 67.0092 53.0443 67.5983 53.0443V51.9777ZM68.1316 51.9777H67.5983V53.0443H68.1316V51.9777ZM68.1316 51.9777H68.1316V53.0443C68.7208 53.0443 69.1983 52.5668 69.1983 51.9777H68.1316ZM68.1316 50.1113V51.9777H69.1983V50.1113H68.1316Z" fill="#BBD422" mask="url(#path-7-inside-1_596_451)"/>
<rect x="29.865" y="22.5" width="7" height="7" rx="0.5" fill="#F8FBE9" stroke="#BBD422"/>
<rect x="29.365" y="34" width="6" height="2" rx="1" fill="#BBD422"/>
<rect x="37.365" y="34" width="6" height="2" rx="1" fill="#BBD422"/>
<rect x="45.365" y="34" width="6" height="2" rx="1" fill="#BBD422"/>
</svg>
