<svg width="110" height="74" viewBox="0 0 110 74" fill="none" xmlns="http://www.w3.org/2000/svg">
<path opacity="0.1" fill-rule="evenodd" clip-rule="evenodd" d="M47.7932 73.2086C37.8746 69.5458 40.0564 56.3677 33.269 49.0088C26.567 41.7425 9.3133 40.1867 9.2101 31.3769C9.1037 22.2939 25.8739 22.3705 32.884 16.1414C38.0151 11.5819 36.9176 1.90465 44.2358 0.253368C51.6015 -1.40865 58.5886 5.53063 65.8326 8.70673C71.6301 11.2486 76.92 13.8159 82.3481 16.9635C91.0196 21.9919 102.99 24.4266 107.028 32.5946C111.23 41.0964 109.147 51.5957 102.625 57.983C96.2665 64.2097 84.0178 61.695 74.6593 64.2936C65.2562 66.9047 57.4899 76.7894 47.7932 73.2086Z" fill="#BBD422"/>
<path d="M60.6521 37.7859L60.6537 37.7796C59.2864 36.6688 57.5587 36.0044 55.6936 36.0044C51.2447 36.0044 47.6385 39.5909 47.6385 44.0113C47.6385 45.8093 48.2684 47.4606 49.3278 48.7753C50.3071 48.7643 51.1482 48.9793 51.7874 49.2327C50.0958 48.074 48.9909 46.1709 48.9909 44.0113C48.9909 40.3691 51.9617 37.4156 55.6268 37.4156C56.1507 37.4156 56.6619 37.48 57.1512 37.5992C56.2912 38.1389 55.7179 39.0889 55.7179 40.1761C55.7179 41.8141 57.0923 43.132 58.7838 43.132C60.4346 43.132 61.8089 41.8141 61.8089 40.1761C61.8089 39.2073 61.3495 38.3452 60.6521 37.7859Z" fill="#BBD422"/>
<path d="M85.8985 32.4617H95.2258C95.4657 32.4617 95.6892 32.583 95.8199 32.7841L100.886 40.5778C101.192 41.0491 100.854 41.6724 100.292 41.6724H85.8985C85.5072 41.6724 85.19 41.3552 85.19 40.9639V33.1702C85.19 32.7789 85.5072 32.4617 85.8985 32.4617Z" stroke="#BBD422" stroke-width="1.41703"/>
<mask id="path-4-inside-1_596_478" fill="white">
<rect x="34.8853" y="19" width="43.9281" height="36.8429" rx="1.41703"/>
</mask>
<rect x="34.8853" y="19" width="43.9281" height="36.8429" rx="1.41703" stroke="#BBD422" stroke-width="5.66814" mask="url(#path-4-inside-1_596_478)"/>
<path d="M88.726 26.1476C86.6712 26.1045 82.8318 26.0442 80.101 26.1249C78.5588 26.1704 77.3963 27.4442 77.3963 28.9315V51.5918C77.3963 53.157 78.6652 54.4259 80.2304 54.4259H98.6518C100.217 54.4259 101.486 53.157 101.486 51.5918V41.2811C101.486 40.9333 101.373 40.6281 101.316 40.4825C101.241 40.2928 101.145 40.0934 101.042 39.8985C100.835 39.5059 100.551 39.0336 100.223 38.5188C99.5622 37.4839 98.6652 36.1895 97.7006 34.8493C95.7729 32.1709 93.5201 29.2335 92.2326 27.6946C91.7701 27.1419 91.1222 26.7746 90.5591 26.5471C89.9808 26.3134 89.3263 26.1602 88.726 26.1476Z" stroke="#BBD422" stroke-width="2.83407"/>
<rect x="9.37863" y="38.8384" width="19.8385" height="1.41703" rx="0.708517" fill="#BBD422"/>
<rect x="0.876434" y="44.5066" width="29.7577" height="1.41703" rx="0.708517" fill="#BBD422"/>
<rect x="13.6297" y="50.1748" width="17.0044" height="1.41703" rx="0.708517" fill="#BBD422"/>
<circle cx="49.7641" cy="55.1345" r="6.37666" fill="#BBD422"/>
<circle cx="89.4411" cy="55.1345" r="6.37666" fill="#BBD422"/>
<circle cx="49.7641" cy="55.1344" r="4.95962" fill="#F8FBE9"/>
<circle cx="89.4411" cy="55.1344" r="4.95962" fill="#F8FBE9"/>
<circle cx="49.7641" cy="55.1343" r="2.12555" fill="#BBD422"/>
<circle cx="89.4411" cy="55.1343" r="2.12555" fill="#BBD422"/>
</svg>
