<svg width="363" height="37" viewBox="0 0 363 37" fill="none" xmlns="http://www.w3.org/2000/svg">
<path d="M0 5C0 2.23858 2.23858 0 5 0H321V37H4.99999C2.23857 37 0 34.7614 0 32V5Z" fill="#EEEEEF"/>
<path d="M28.469 22.894L28.462 24H22.281V13.969H28.462V15.075H23.639V18.407H27.545V19.471H23.639V22.894H28.469ZM31.1217 17.938C31.2757 17.7653 31.439 17.609 31.6117 17.469C31.7843 17.329 31.9663 17.21 32.1577 17.112C32.3537 17.0093 32.559 16.9323 32.7737 16.881C32.993 16.825 33.2287 16.797 33.4807 16.797C33.868 16.797 34.2087 16.8623 34.5027 16.993C34.8013 17.119 35.0487 17.301 35.2447 17.539C35.4453 17.7723 35.597 18.0547 35.6997 18.386C35.8023 18.7173 35.8537 19.0837 35.8537 19.485V24H34.6007V19.485C34.6007 18.9483 34.477 18.533 34.2297 18.239C33.987 17.9403 33.616 17.791 33.1167 17.791C32.748 17.791 32.4027 17.8797 32.0807 18.057C31.7633 18.2343 31.4693 18.4747 31.1987 18.778V24H29.9457V16.909H30.6947C30.872 16.909 30.9817 16.9953 31.0237 17.168L31.1217 17.938ZM39.9036 24.112C39.3436 24.112 38.9119 23.9557 38.6086 23.643C38.3099 23.3303 38.1606 22.88 38.1606 22.292V17.952H37.3066C37.2319 17.952 37.1689 17.931 37.1176 17.889C37.0663 17.8423 37.0406 17.7723 37.0406 17.679V17.182L38.2026 17.035L38.4896 14.844C38.5036 14.774 38.5339 14.718 38.5806 14.676C38.6319 14.6293 38.6973 14.606 38.7766 14.606H39.4066V17.049H41.4576V17.952H39.4066V22.208C39.4066 22.5067 39.4789 22.7283 39.6236 22.873C39.7683 23.0177 39.9549 23.09 40.1836 23.09C40.3143 23.09 40.4263 23.0737 40.5196 23.041C40.6176 23.0037 40.7016 22.964 40.7716 22.922C40.8416 22.88 40.8999 22.8427 40.9466 22.81C40.9979 22.7727 41.0423 22.754 41.0796 22.754C41.1449 22.754 41.2033 22.7937 41.2546 22.873L41.6186 23.468C41.4039 23.6687 41.1449 23.8273 40.8416 23.944C40.5383 24.056 40.2256 24.112 39.9036 24.112ZM43.9972 18.33C44.2212 17.8447 44.4965 17.4667 44.8232 17.196C45.1499 16.9207 45.5489 16.783 46.0202 16.783C46.1695 16.783 46.3119 16.7993 46.4472 16.832C46.5872 16.8647 46.7109 16.916 46.8182 16.986L46.7272 17.917C46.6992 18.0337 46.6292 18.092 46.5172 18.092C46.4519 18.092 46.3562 18.078 46.2302 18.05C46.1042 18.022 45.9619 18.008 45.8032 18.008C45.5792 18.008 45.3785 18.0407 45.2012 18.106C45.0285 18.1713 44.8722 18.2693 44.7322 18.4C44.5969 18.526 44.4732 18.6847 44.3612 18.876C44.2539 19.0627 44.1559 19.2773 44.0672 19.52V24H42.8142V16.909H43.5282C43.6635 16.909 43.7569 16.9347 43.8082 16.986C43.8595 17.0373 43.8945 17.126 43.9132 17.252L43.9972 18.33ZM52.4427 19.681C52.4427 19.3917 52.4007 19.128 52.3167 18.89C52.2374 18.6473 52.1184 18.4397 51.9597 18.267C51.8057 18.0897 51.6167 17.9543 51.3927 17.861C51.1687 17.763 50.9144 17.714 50.6297 17.714C50.0324 17.714 49.5587 17.889 49.2087 18.239C48.8634 18.5843 48.6487 19.065 48.5647 19.681H52.4427ZM53.4507 23.006C53.2967 23.1927 53.1124 23.356 52.8977 23.496C52.683 23.6313 52.452 23.7433 52.2047 23.832C51.962 23.9207 51.71 23.986 51.4487 24.028C51.1874 24.0747 50.9284 24.098 50.6717 24.098C50.1817 24.098 49.729 24.0163 49.3137 23.853C48.903 23.685 48.546 23.4423 48.2427 23.125C47.944 22.803 47.7107 22.4063 47.5427 21.935C47.3747 21.4637 47.2907 20.9223 47.2907 20.311C47.2907 19.8163 47.3654 19.3543 47.5147 18.925C47.6687 18.4957 47.888 18.1247 48.1727 17.812C48.4574 17.4947 48.805 17.2473 49.2157 17.07C49.6264 16.888 50.0884 16.797 50.6017 16.797C51.0264 16.797 51.4184 16.8693 51.7777 17.014C52.1417 17.154 52.4544 17.3593 52.7157 17.63C52.9817 17.896 53.1894 18.2273 53.3387 18.624C53.488 19.016 53.5627 19.464 53.5627 19.968C53.5627 20.164 53.5417 20.2947 53.4997 20.36C53.4577 20.4253 53.3784 20.458 53.2617 20.458H48.5227C48.5367 20.906 48.5974 21.2957 48.7047 21.627C48.8167 21.9583 48.9707 22.236 49.1667 22.46C49.3627 22.6793 49.596 22.845 49.8667 22.957C50.1374 23.0643 50.4407 23.118 50.7767 23.118C51.0894 23.118 51.3577 23.083 51.5817 23.013C51.8104 22.9383 52.0064 22.859 52.1697 22.775C52.333 22.691 52.4684 22.614 52.5757 22.544C52.6877 22.4693 52.7834 22.432 52.8627 22.432C52.9654 22.432 53.0447 22.4717 53.1007 22.551L53.4507 23.006ZM60.0562 17.441C60.0562 17.5297 60.0398 17.616 60.0072 17.7C59.9792 17.784 59.9395 17.8563 59.8882 17.917L56.0452 23.027H59.9232V24H54.5822V23.482C54.5822 23.4213 54.5962 23.3513 54.6242 23.272C54.6522 23.188 54.6942 23.1087 54.7502 23.034L58.6142 17.889H54.7992V16.909H60.0562V17.441ZM70.9495 16.909L68.0585 24H66.9385L64.0475 16.909H65.0625C65.1652 16.909 65.2492 16.9347 65.3145 16.986C65.3798 17.0373 65.4242 17.098 65.4475 17.168L67.2465 21.732C67.3025 21.9047 67.3515 22.0727 67.3935 22.236C67.4355 22.3993 67.4752 22.5627 67.5125 22.726C67.5498 22.5627 67.5895 22.3993 67.6315 22.236C67.6735 22.0727 67.7248 21.9047 67.7855 21.732L69.6055 17.168C69.6335 17.0933 69.6802 17.0327 69.7455 16.986C69.8108 16.9347 69.8878 16.909 69.9765 16.909H70.9495ZM74.9598 16.797C75.4778 16.797 75.9445 16.8833 76.3598 17.056C76.7752 17.2287 77.1298 17.4737 77.4238 17.791C77.7178 18.1083 77.9418 18.4933 78.0958 18.946C78.2545 19.394 78.3338 19.8957 78.3338 20.451C78.3338 21.011 78.2545 21.515 78.0958 21.963C77.9418 22.411 77.7178 22.7937 77.4238 23.111C77.1298 23.4283 76.7752 23.6733 76.3598 23.846C75.9445 24.014 75.4778 24.098 74.9598 24.098C74.4372 24.098 73.9658 24.014 73.5458 23.846C73.1305 23.6733 72.7758 23.4283 72.4818 23.111C72.1878 22.7937 71.9615 22.411 71.8028 21.963C71.6488 21.515 71.5718 21.011 71.5718 20.451C71.5718 19.8957 71.6488 19.394 71.8028 18.946C71.9615 18.4933 72.1878 18.1083 72.4818 17.791C72.7758 17.4737 73.1305 17.2287 73.5458 17.056C73.9658 16.8833 74.4372 16.797 74.9598 16.797ZM74.9598 23.125C75.6598 23.125 76.1825 22.8917 76.5278 22.425C76.8732 21.9537 77.0458 21.298 77.0458 20.458C77.0458 19.6133 76.8732 18.9553 76.5278 18.484C76.1825 18.0127 75.6598 17.777 74.9598 17.777C74.6052 17.777 74.2948 17.8377 74.0288 17.959C73.7675 18.0803 73.5482 18.2553 73.3708 18.484C73.1982 18.7127 73.0675 18.995 72.9788 19.331C72.8948 19.6623 72.8528 20.038 72.8528 20.458C72.8528 21.298 73.0255 21.9537 73.3708 22.425C73.7208 22.8917 74.2505 23.125 74.9598 23.125ZM82.0381 24.112C81.4781 24.112 81.0465 23.9557 80.7431 23.643C80.4445 23.3303 80.2951 22.88 80.2951 22.292V17.952H79.4411C79.3665 17.952 79.3035 17.931 79.2521 17.889C79.2008 17.8423 79.1751 17.7723 79.1751 17.679V17.182L80.3371 17.035L80.6241 14.844C80.6381 14.774 80.6685 14.718 80.7151 14.676C80.7665 14.6293 80.8318 14.606 80.9111 14.606H81.5411V17.049H83.5921V17.952H81.5411V22.208C81.5411 22.5067 81.6135 22.7283 81.7581 22.873C81.9028 23.0177 82.0895 23.09 82.3181 23.09C82.4488 23.09 82.5608 23.0737 82.6541 23.041C82.7521 23.0037 82.8361 22.964 82.9061 22.922C82.9761 22.88 83.0345 22.8427 83.0811 22.81C83.1325 22.7727 83.1768 22.754 83.2141 22.754C83.2795 22.754 83.3378 22.7937 83.3891 22.873L83.7531 23.468C83.5385 23.6687 83.2795 23.8273 82.9761 23.944C82.6728 24.056 82.3601 24.112 82.0381 24.112ZM86.1317 18.33C86.3557 17.8447 86.6311 17.4667 86.9577 17.196C87.2844 16.9207 87.6834 16.783 88.1547 16.783C88.3041 16.783 88.4464 16.7993 88.5817 16.832C88.7217 16.8647 88.8454 16.916 88.9527 16.986L88.8617 17.917C88.8337 18.0337 88.7637 18.092 88.6517 18.092C88.5864 18.092 88.4907 18.078 88.3647 18.05C88.2387 18.022 88.0964 18.008 87.9377 18.008C87.7137 18.008 87.5131 18.0407 87.3357 18.106C87.1631 18.1713 87.0067 18.2693 86.8667 18.4C86.7314 18.526 86.6077 18.6847 86.4957 18.876C86.3884 19.0627 86.2904 19.2773 86.2017 19.52V24H84.9487V16.909H85.6627C85.7981 16.909 85.8914 16.9347 85.9427 16.986C85.9941 17.0373 86.0291 17.126 86.0477 17.252L86.1317 18.33ZM94.5772 19.681C94.5772 19.3917 94.5352 19.128 94.4512 18.89C94.3719 18.6473 94.2529 18.4397 94.0942 18.267C93.9402 18.0897 93.7512 17.9543 93.5272 17.861C93.3032 17.763 93.0489 17.714 92.7642 17.714C92.1669 17.714 91.6932 17.889 91.3432 18.239C90.9979 18.5843 90.7832 19.065 90.6992 19.681H94.5772ZM95.5852 23.006C95.4312 23.1927 95.2469 23.356 95.0322 23.496C94.8175 23.6313 94.5865 23.7433 94.3392 23.832C94.0965 23.9207 93.8445 23.986 93.5832 24.028C93.3219 24.0747 93.0629 24.098 92.8062 24.098C92.3162 24.098 91.8635 24.0163 91.4482 23.853C91.0375 23.685 90.6805 23.4423 90.3772 23.125C90.0785 22.803 89.8452 22.4063 89.6772 21.935C89.5092 21.4637 89.4252 20.9223 89.4252 20.311C89.4252 19.8163 89.4999 19.3543 89.6492 18.925C89.8032 18.4957 90.0225 18.1247 90.3072 17.812C90.5919 17.4947 90.9395 17.2473 91.3502 17.07C91.7609 16.888 92.2229 16.797 92.7362 16.797C93.1609 16.797 93.5529 16.8693 93.9122 17.014C94.2762 17.154 94.5889 17.3593 94.8502 17.63C95.1162 17.896 95.3239 18.2273 95.4732 18.624C95.6225 19.016 95.6972 19.464 95.6972 19.968C95.6972 20.164 95.6762 20.2947 95.6342 20.36C95.5922 20.4253 95.5129 20.458 95.3962 20.458H90.6572C90.6712 20.906 90.7319 21.2957 90.8392 21.627C90.9512 21.9583 91.1052 22.236 91.3012 22.46C91.4972 22.6793 91.7305 22.845 92.0012 22.957C92.2719 23.0643 92.5752 23.118 92.9112 23.118C93.2239 23.118 93.4922 23.083 93.7162 23.013C93.9449 22.9383 94.1409 22.859 94.3042 22.775C94.4675 22.691 94.6029 22.614 94.7102 22.544C94.8222 22.4693 94.9179 22.432 94.9972 22.432C95.0999 22.432 95.1792 22.4717 95.2352 22.551L95.5852 23.006ZM104.793 20.808C104.219 20.8267 103.729 20.8733 103.323 20.948C102.921 21.018 102.592 21.1113 102.336 21.228C102.084 21.3447 101.899 21.4823 101.783 21.641C101.671 21.7997 101.615 21.977 101.615 22.173C101.615 22.3597 101.645 22.5207 101.706 22.656C101.766 22.7913 101.848 22.9033 101.951 22.992C102.058 23.076 102.182 23.139 102.322 23.181C102.466 23.2183 102.62 23.237 102.784 23.237C103.003 23.237 103.204 23.216 103.386 23.174C103.568 23.1273 103.738 23.062 103.897 22.978C104.06 22.894 104.214 22.7937 104.359 22.677C104.508 22.5603 104.653 22.4273 104.793 22.278V20.808ZM100.768 17.91C101.16 17.532 101.582 17.2497 102.035 17.063C102.487 16.8763 102.989 16.783 103.54 16.783C103.936 16.783 104.289 16.8483 104.597 16.979C104.905 17.1097 105.164 17.2917 105.374 17.525C105.584 17.7583 105.742 18.0407 105.85 18.372C105.957 18.7033 106.011 19.0673 106.011 19.464V24H105.458C105.336 24 105.243 23.9813 105.178 23.944C105.112 23.902 105.061 23.8227 105.024 23.706L104.884 23.034C104.697 23.2067 104.515 23.3607 104.338 23.496C104.16 23.6267 103.974 23.7387 103.778 23.832C103.582 23.9207 103.372 23.9883 103.148 24.035C102.928 24.0863 102.683 24.112 102.413 24.112C102.137 24.112 101.878 24.0747 101.636 24C101.393 23.9207 101.181 23.804 100.999 23.65C100.821 23.496 100.679 23.3023 100.572 23.069C100.469 22.831 100.418 22.551 100.418 22.229C100.418 21.949 100.495 21.6807 100.649 21.424C100.803 21.1627 101.052 20.9317 101.398 20.731C101.743 20.5303 102.193 20.367 102.749 20.241C103.304 20.1103 103.985 20.0357 104.793 20.017V19.464C104.793 18.9133 104.674 18.498 104.436 18.218C104.198 17.9333 103.85 17.791 103.393 17.791C103.085 17.791 102.826 17.8307 102.616 17.91C102.41 17.9847 102.231 18.071 102.077 18.169C101.927 18.2623 101.797 18.3487 101.685 18.428C101.577 18.5027 101.47 18.54 101.363 18.54C101.279 18.54 101.206 18.519 101.146 18.477C101.085 18.4303 101.034 18.3743 100.992 18.309L100.768 17.91ZM112.599 18.596C112.365 18.2833 112.113 18.0663 111.843 17.945C111.572 17.819 111.269 17.756 110.933 17.756C110.275 17.756 109.768 17.9917 109.414 18.463C109.059 18.9343 108.882 19.6063 108.882 20.479C108.882 20.941 108.921 21.3377 109.001 21.669C109.08 21.9957 109.197 22.2663 109.351 22.481C109.505 22.691 109.694 22.845 109.918 22.943C110.142 23.041 110.396 23.09 110.681 23.09C111.091 23.09 111.448 22.9967 111.752 22.81C112.06 22.6233 112.342 22.3597 112.599 22.019V18.596ZM113.845 13.689V24H113.103C112.925 24 112.813 23.9137 112.767 23.741L112.655 22.88C112.351 23.244 112.006 23.538 111.619 23.762C111.231 23.986 110.783 24.098 110.275 24.098C109.869 24.098 109.5 24.021 109.169 23.867C108.837 23.7083 108.555 23.4773 108.322 23.174C108.088 22.8707 107.909 22.4927 107.783 22.04C107.657 21.5873 107.594 21.067 107.594 20.479C107.594 19.9563 107.664 19.471 107.804 19.023C107.944 18.5703 108.144 18.1783 108.406 17.847C108.667 17.5157 108.987 17.2567 109.365 17.07C109.747 16.8787 110.177 16.783 110.653 16.783C111.087 16.783 111.458 16.8577 111.766 17.007C112.078 17.1517 112.356 17.3547 112.599 17.616V13.689H113.845ZM117.066 18.33C117.29 17.8447 117.565 17.4667 117.892 17.196C118.218 16.9207 118.617 16.783 119.089 16.783C119.238 16.783 119.38 16.7993 119.516 16.832C119.656 16.8647 119.779 16.916 119.887 16.986L119.796 17.917C119.768 18.0337 119.698 18.092 119.586 18.092C119.52 18.092 119.425 18.078 119.299 18.05C119.173 18.022 119.03 18.008 118.872 18.008C118.648 18.008 118.447 18.0407 118.27 18.106C118.097 18.1713 117.941 18.2693 117.801 18.4C117.665 18.526 117.542 18.6847 117.43 18.876C117.322 19.0627 117.224 19.2773 117.136 19.52V24H115.883V16.909H116.597C116.732 16.909 116.825 16.9347 116.877 16.986C116.928 17.0373 116.963 17.126 116.982 17.252L117.066 18.33ZM125.511 19.681C125.511 19.3917 125.469 19.128 125.385 18.89C125.306 18.6473 125.187 18.4397 125.028 18.267C124.874 18.0897 124.685 17.9543 124.461 17.861C124.237 17.763 123.983 17.714 123.698 17.714C123.101 17.714 122.627 17.889 122.277 18.239C121.932 18.5843 121.717 19.065 121.633 19.681H125.511ZM126.519 23.006C126.365 23.1927 126.181 23.356 125.966 23.496C125.752 23.6313 125.521 23.7433 125.273 23.832C125.031 23.9207 124.779 23.986 124.517 24.028C124.256 24.0747 123.997 24.098 123.74 24.098C123.25 24.098 122.798 24.0163 122.382 23.853C121.972 23.685 121.615 23.4423 121.311 23.125C121.013 22.803 120.779 22.4063 120.611 21.935C120.443 21.4637 120.359 20.9223 120.359 20.311C120.359 19.8163 120.434 19.3543 120.583 18.925C120.737 18.4957 120.957 18.1247 121.241 17.812C121.526 17.4947 121.874 17.2473 122.284 17.07C122.695 16.888 123.157 16.797 123.67 16.797C124.095 16.797 124.487 16.8693 124.846 17.014C125.21 17.154 125.523 17.3593 125.784 17.63C126.05 17.896 126.258 18.2273 126.407 18.624C126.557 19.016 126.631 19.464 126.631 19.968C126.631 20.164 126.61 20.2947 126.568 20.36C126.526 20.4253 126.447 20.458 126.33 20.458H121.591C121.605 20.906 121.666 21.2957 121.773 21.627C121.885 21.9583 122.039 22.236 122.235 22.46C122.431 22.6793 122.665 22.845 122.935 22.957C123.206 23.0643 123.509 23.118 123.845 23.118C124.158 23.118 124.426 23.083 124.65 23.013C124.879 22.9383 125.075 22.859 125.238 22.775C125.402 22.691 125.537 22.614 125.644 22.544C125.756 22.4693 125.852 22.432 125.931 22.432C126.034 22.432 126.113 22.4717 126.169 22.551L126.519 23.006ZM132.362 18.078C132.306 18.1807 132.219 18.232 132.103 18.232C132.033 18.232 131.953 18.2063 131.865 18.155C131.776 18.1037 131.666 18.0477 131.536 17.987C131.41 17.9217 131.258 17.8633 131.081 17.812C130.903 17.756 130.693 17.728 130.451 17.728C130.241 17.728 130.052 17.756 129.884 17.812C129.716 17.8633 129.571 17.9357 129.45 18.029C129.333 18.1223 129.242 18.232 129.177 18.358C129.116 18.4793 129.086 18.6123 129.086 18.757C129.086 18.939 129.137 19.0907 129.24 19.212C129.347 19.3333 129.487 19.4383 129.66 19.527C129.832 19.6157 130.028 19.695 130.248 19.765C130.467 19.8303 130.691 19.9027 130.92 19.982C131.153 20.0567 131.379 20.1407 131.599 20.234C131.818 20.3273 132.014 20.444 132.187 20.584C132.359 20.724 132.497 20.8967 132.6 21.102C132.707 21.3027 132.761 21.5453 132.761 21.83C132.761 22.1567 132.702 22.46 132.586 22.74C132.469 23.0153 132.296 23.2557 132.068 23.461C131.839 23.6617 131.559 23.8203 131.228 23.937C130.896 24.0537 130.514 24.112 130.08 24.112C129.585 24.112 129.137 24.0327 128.736 23.874C128.334 23.7107 127.994 23.503 127.714 23.251L128.008 22.775C128.045 22.7143 128.089 22.6677 128.141 22.635C128.192 22.6023 128.257 22.586 128.337 22.586C128.421 22.586 128.509 22.6187 128.603 22.684C128.696 22.7493 128.808 22.8217 128.939 22.901C129.074 22.9803 129.237 23.0527 129.429 23.118C129.62 23.1833 129.858 23.216 130.143 23.216C130.385 23.216 130.598 23.1857 130.78 23.125C130.962 23.0597 131.113 22.9733 131.235 22.866C131.356 22.7587 131.445 22.635 131.501 22.495C131.561 22.355 131.592 22.2057 131.592 22.047C131.592 21.851 131.538 21.69 131.431 21.564C131.328 21.4333 131.19 21.3237 131.018 21.235C130.845 21.1417 130.647 21.0623 130.423 20.997C130.203 20.927 129.977 20.8547 129.744 20.78C129.515 20.7053 129.289 20.6213 129.065 20.528C128.845 20.43 128.649 20.3087 128.477 20.164C128.304 20.0193 128.164 19.842 128.057 19.632C127.954 19.4173 127.903 19.1583 127.903 18.855C127.903 18.5843 127.959 18.3253 128.071 18.078C128.183 17.826 128.346 17.6067 128.561 17.42C128.775 17.2287 129.039 17.077 129.352 16.965C129.664 16.853 130.021 16.797 130.423 16.797C130.889 16.797 131.307 16.8717 131.676 17.021C132.049 17.1657 132.371 17.3663 132.642 17.623L132.362 18.078ZM138.488 18.078C138.432 18.1807 138.346 18.232 138.229 18.232C138.159 18.232 138.08 18.2063 137.991 18.155C137.903 18.1037 137.793 18.0477 137.662 17.987C137.536 17.9217 137.385 17.8633 137.207 17.812C137.03 17.756 136.82 17.728 136.577 17.728C136.367 17.728 136.178 17.756 136.01 17.812C135.842 17.8633 135.698 17.9357 135.576 18.029C135.46 18.1223 135.369 18.232 135.303 18.358C135.243 18.4793 135.212 18.6123 135.212 18.757C135.212 18.939 135.264 19.0907 135.366 19.212C135.474 19.3333 135.614 19.4383 135.786 19.527C135.959 19.6157 136.155 19.695 136.374 19.765C136.594 19.8303 136.818 19.9027 137.046 19.982C137.28 20.0567 137.506 20.1407 137.725 20.234C137.945 20.3273 138.141 20.444 138.313 20.584C138.486 20.724 138.624 20.8967 138.726 21.102C138.834 21.3027 138.887 21.5453 138.887 21.83C138.887 22.1567 138.829 22.46 138.712 22.74C138.596 23.0153 138.423 23.2557 138.194 23.461C137.966 23.6617 137.686 23.8203 137.354 23.937C137.023 24.0537 136.64 24.112 136.206 24.112C135.712 24.112 135.264 24.0327 134.862 23.874C134.461 23.7107 134.12 23.503 133.84 23.251L134.134 22.775C134.172 22.7143 134.216 22.6677 134.267 22.635C134.319 22.6023 134.384 22.586 134.463 22.586C134.547 22.586 134.636 22.6187 134.729 22.684C134.823 22.7493 134.935 22.8217 135.065 22.901C135.201 22.9803 135.364 23.0527 135.555 23.118C135.747 23.1833 135.985 23.216 136.269 23.216C136.512 23.216 136.724 23.1857 136.906 23.125C137.088 23.0597 137.24 22.9733 137.361 22.866C137.483 22.7587 137.571 22.635 137.627 22.495C137.688 22.355 137.718 22.2057 137.718 22.047C137.718 21.851 137.665 21.69 137.557 21.564C137.455 21.4333 137.317 21.3237 137.144 21.235C136.972 21.1417 136.773 21.0623 136.549 20.997C136.33 20.927 136.104 20.8547 135.87 20.78C135.642 20.7053 135.415 20.6213 135.191 20.528C134.972 20.43 134.776 20.3087 134.603 20.164C134.431 20.0193 134.291 19.842 134.183 19.632C134.081 19.4173 134.029 19.1583 134.029 18.855C134.029 18.5843 134.085 18.3253 134.197 18.078C134.309 17.826 134.473 17.6067 134.687 17.42C134.902 17.2287 135.166 17.077 135.478 16.965C135.791 16.853 136.148 16.797 136.549 16.797C137.016 16.797 137.434 16.8717 137.802 17.021C138.176 17.1657 138.498 17.3663 138.768 17.623L138.488 18.078ZM145.231 19.681C145.231 19.3917 145.189 19.128 145.105 18.89C145.026 18.6473 144.907 18.4397 144.748 18.267C144.594 18.0897 144.405 17.9543 144.181 17.861C143.957 17.763 143.703 17.714 143.418 17.714C142.821 17.714 142.347 17.889 141.997 18.239C141.652 18.5843 141.437 19.065 141.353 19.681H145.231ZM146.239 23.006C146.085 23.1927 145.901 23.356 145.686 23.496C145.471 23.6313 145.24 23.7433 144.993 23.832C144.75 23.9207 144.498 23.986 144.237 24.028C143.976 24.0747 143.717 24.098 143.46 24.098C142.97 24.098 142.517 24.0163 142.102 23.853C141.691 23.685 141.334 23.4423 141.031 23.125C140.732 22.803 140.499 22.4063 140.331 21.935C140.163 21.4637 140.079 20.9223 140.079 20.311C140.079 19.8163 140.154 19.3543 140.303 18.925C140.457 18.4957 140.676 18.1247 140.961 17.812C141.246 17.4947 141.593 17.2473 142.004 17.07C142.415 16.888 142.877 16.797 143.39 16.797C143.815 16.797 144.207 16.8693 144.566 17.014C144.93 17.154 145.243 17.3593 145.504 17.63C145.77 17.896 145.978 18.2273 146.127 18.624C146.276 19.016 146.351 19.464 146.351 19.968C146.351 20.164 146.33 20.2947 146.288 20.36C146.246 20.4253 146.167 20.458 146.05 20.458H141.311C141.325 20.906 141.386 21.2957 141.493 21.627C141.605 21.9583 141.759 22.236 141.955 22.46C142.151 22.6793 142.384 22.845 142.655 22.957C142.926 23.0643 143.229 23.118 143.565 23.118C143.878 23.118 144.146 23.083 144.37 23.013C144.599 22.9383 144.795 22.859 144.958 22.775C145.121 22.691 145.257 22.614 145.364 22.544C145.476 22.4693 145.572 22.432 145.651 22.432C145.754 22.432 145.833 22.4717 145.889 22.551L146.239 23.006ZM156.538 18.169C156.501 18.2203 156.464 18.26 156.426 18.288C156.389 18.316 156.338 18.33 156.272 18.33C156.202 18.33 156.125 18.302 156.041 18.246C155.957 18.1853 155.852 18.12 155.726 18.05C155.605 17.98 155.453 17.917 155.271 17.861C155.094 17.8003 154.875 17.77 154.613 17.77C154.263 17.77 153.955 17.833 153.689 17.959C153.423 18.0803 153.199 18.2577 153.017 18.491C152.84 18.7243 152.705 19.0067 152.611 19.338C152.523 19.6693 152.478 20.0403 152.478 20.451C152.478 20.8803 152.527 21.263 152.625 21.599C152.723 21.9303 152.861 22.2103 153.038 22.439C153.22 22.663 153.437 22.8357 153.689 22.957C153.946 23.0737 154.233 23.132 154.55 23.132C154.854 23.132 155.103 23.097 155.299 23.027C155.495 22.9523 155.656 22.8707 155.782 22.782C155.913 22.6933 156.02 22.614 156.104 22.544C156.193 22.4693 156.279 22.432 156.363 22.432C156.466 22.432 156.545 22.4717 156.601 22.551L156.951 23.006C156.797 23.1973 156.622 23.3607 156.426 23.496C156.23 23.6313 156.018 23.7457 155.789 23.839C155.565 23.9277 155.33 23.993 155.082 24.035C154.835 24.077 154.583 24.098 154.326 24.098C153.883 24.098 153.47 24.0163 153.087 23.853C152.709 23.6897 152.38 23.454 152.1 23.146C151.82 22.8333 151.601 22.4507 151.442 21.998C151.284 21.5453 151.204 21.0297 151.204 20.451C151.204 19.9237 151.277 19.436 151.421 18.988C151.571 18.54 151.785 18.155 152.065 17.833C152.35 17.5063 152.698 17.252 153.108 17.07C153.524 16.888 154 16.797 154.536 16.797C155.036 16.797 155.474 16.8787 155.852 17.042C156.235 17.2007 156.573 17.427 156.867 17.721L156.538 18.169ZM161.225 16.797C161.743 16.797 162.21 16.8833 162.625 17.056C163.04 17.2287 163.395 17.4737 163.689 17.791C163.983 18.1083 164.207 18.4933 164.361 18.946C164.52 19.394 164.599 19.8957 164.599 20.451C164.599 21.011 164.52 21.515 164.361 21.963C164.207 22.411 163.983 22.7937 163.689 23.111C163.395 23.4283 163.04 23.6733 162.625 23.846C162.21 24.014 161.743 24.098 161.225 24.098C160.702 24.098 160.231 24.014 159.811 23.846C159.396 23.6733 159.041 23.4283 158.747 23.111C158.453 22.7937 158.227 22.411 158.068 21.963C157.914 21.515 157.837 21.011 157.837 20.451C157.837 19.8957 157.914 19.394 158.068 18.946C158.227 18.4933 158.453 18.1083 158.747 17.791C159.041 17.4737 159.396 17.2287 159.811 17.056C160.231 16.8833 160.702 16.797 161.225 16.797ZM161.225 23.125C161.925 23.125 162.448 22.8917 162.793 22.425C163.138 21.9537 163.311 21.298 163.311 20.458C163.311 19.6133 163.138 18.9553 162.793 18.484C162.448 18.0127 161.925 17.777 161.225 17.777C160.87 17.777 160.56 17.8377 160.294 17.959C160.033 18.0803 159.813 18.2553 159.636 18.484C159.463 18.7127 159.333 18.995 159.244 19.331C159.16 19.6623 159.118 20.038 159.118 20.458C159.118 21.298 159.291 21.9537 159.636 22.425C159.986 22.8917 160.516 23.125 161.225 23.125ZM172.08 16.909V24H171.338C171.161 24 171.049 23.9137 171.002 23.741L170.904 22.978C170.596 23.3187 170.251 23.594 169.868 23.804C169.486 24.0093 169.047 24.112 168.552 24.112C168.165 24.112 167.822 24.049 167.523 23.923C167.229 23.7923 166.982 23.6103 166.781 23.377C166.581 23.1437 166.429 22.8613 166.326 22.53C166.228 22.1987 166.179 21.8323 166.179 21.431V16.909H167.425V21.431C167.425 21.9677 167.547 22.383 167.789 22.677C168.037 22.971 168.412 23.118 168.916 23.118C169.285 23.118 169.628 23.0317 169.945 22.859C170.267 22.6817 170.564 22.439 170.834 22.131V16.909H172.08ZM175.309 18.33C175.533 17.8447 175.808 17.4667 176.135 17.196C176.462 16.9207 176.861 16.783 177.332 16.783C177.481 16.783 177.624 16.7993 177.759 16.832C177.899 16.8647 178.023 16.916 178.13 16.986L178.039 17.917C178.011 18.0337 177.941 18.092 177.829 18.092C177.764 18.092 177.668 18.078 177.542 18.05C177.416 18.022 177.274 18.008 177.115 18.008C176.891 18.008 176.69 18.0407 176.513 18.106C176.34 18.1713 176.184 18.2693 176.044 18.4C175.909 18.526 175.785 18.6847 175.673 18.876C175.566 19.0627 175.468 19.2773 175.379 19.52V24H174.126V16.909H174.84C174.975 16.909 175.069 16.9347 175.12 16.986C175.171 17.0373 175.206 17.126 175.225 17.252L175.309 18.33ZM180.479 18.33C180.703 17.8447 180.978 17.4667 181.305 17.196C181.631 16.9207 182.03 16.783 182.502 16.783C182.651 16.783 182.793 16.7993 182.929 16.832C183.069 16.8647 183.192 16.916 183.3 16.986L183.209 17.917C183.181 18.0337 183.111 18.092 182.999 18.092C182.933 18.092 182.838 18.078 182.712 18.05C182.586 18.022 182.443 18.008 182.285 18.008C182.061 18.008 181.86 18.0407 181.683 18.106C181.51 18.1713 181.354 18.2693 181.214 18.4C181.078 18.526 180.955 18.6847 180.843 18.876C180.735 19.0627 180.637 19.2773 180.549 19.52V24H179.296V16.909H180.01C180.145 16.909 180.238 16.9347 180.29 16.986C180.341 17.0373 180.376 17.126 180.395 17.252L180.479 18.33ZM185.781 16.909V24H184.535V16.909H185.781ZM186.047 14.683C186.047 14.8043 186.022 14.9187 185.97 15.026C185.924 15.1287 185.858 15.222 185.774 15.306C185.695 15.3853 185.599 15.4483 185.487 15.495C185.38 15.5417 185.266 15.565 185.144 15.565C185.023 15.565 184.909 15.5417 184.801 15.495C184.699 15.4483 184.608 15.3853 184.528 15.306C184.449 15.222 184.386 15.1287 184.339 15.026C184.293 14.9187 184.269 14.8043 184.269 14.683C184.269 14.5617 184.293 14.4473 184.339 14.34C184.386 14.228 184.449 14.1323 184.528 14.053C184.608 13.969 184.699 13.9037 184.801 13.857C184.909 13.8103 185.023 13.787 185.144 13.787C185.266 13.787 185.38 13.8103 185.487 13.857C185.599 13.9037 185.695 13.969 185.774 14.053C185.858 14.1323 185.924 14.228 185.97 14.34C186.022 14.4473 186.047 14.5617 186.047 14.683ZM192.644 19.681C192.644 19.3917 192.602 19.128 192.518 18.89C192.439 18.6473 192.32 18.4397 192.161 18.267C192.007 18.0897 191.818 17.9543 191.594 17.861C191.37 17.763 191.116 17.714 190.831 17.714C190.234 17.714 189.76 17.889 189.41 18.239C189.065 18.5843 188.85 19.065 188.766 19.681H192.644ZM193.652 23.006C193.498 23.1927 193.314 23.356 193.099 23.496C192.885 23.6313 192.654 23.7433 192.406 23.832C192.164 23.9207 191.912 23.986 191.65 24.028C191.389 24.0747 191.13 24.098 190.873 24.098C190.383 24.098 189.931 24.0163 189.515 23.853C189.105 23.685 188.748 23.4423 188.444 23.125C188.146 22.803 187.912 22.4063 187.744 21.935C187.576 21.4637 187.492 20.9223 187.492 20.311C187.492 19.8163 187.567 19.3543 187.716 18.925C187.87 18.4957 188.09 18.1247 188.374 17.812C188.659 17.4947 189.007 17.2473 189.417 17.07C189.828 16.888 190.29 16.797 190.803 16.797C191.228 16.797 191.62 16.8693 191.979 17.014C192.343 17.154 192.656 17.3593 192.917 17.63C193.183 17.896 193.391 18.2273 193.54 18.624C193.69 19.016 193.764 19.464 193.764 19.968C193.764 20.164 193.743 20.2947 193.701 20.36C193.659 20.4253 193.58 20.458 193.463 20.458H188.724C188.738 20.906 188.799 21.2957 188.906 21.627C189.018 21.9583 189.172 22.236 189.368 22.46C189.564 22.6793 189.798 22.845 190.068 22.957C190.339 23.0643 190.642 23.118 190.978 23.118C191.291 23.118 191.559 23.083 191.783 23.013C192.012 22.9383 192.208 22.859 192.371 22.775C192.535 22.691 192.67 22.614 192.777 22.544C192.889 22.4693 192.985 22.432 193.064 22.432C193.167 22.432 193.246 22.4717 193.302 22.551L193.652 23.006ZM196.653 13.689V24H195.407V13.689H196.653Z" fill="#8A8B8C"/>
<path d="M321 0H358C360.761 0 363 2.23858 363 5V32C363 34.7614 360.761 37 358 37H321V0Z" fill="#BBD422"/>
<path fill-rule="evenodd" clip-rule="evenodd" d="M340.838 11.3428C340.945 11.2342 341.073 11.1479 341.213 11.0891C341.354 11.0303 341.504 11 341.656 11C341.808 11 341.959 11.0303 342.099 11.0891C342.24 11.1479 342.367 11.2342 342.475 11.3428L349.412 18.3443C349.52 18.4527 349.605 18.5815 349.664 18.7232C349.722 18.865 349.752 19.017 349.752 19.1705C349.752 19.324 349.722 19.4759 349.664 19.6177C349.605 19.7595 349.52 19.8882 349.412 19.9966L342.475 26.9981C342.258 27.2172 341.963 27.3403 341.656 27.3403C341.349 27.3403 341.055 27.2172 340.838 26.9981C340.621 26.779 340.499 26.4818 340.499 26.1719C340.499 25.8621 340.621 25.5649 340.838 25.3458L346.959 19.1705L340.838 12.9952C340.73 12.8868 340.645 12.758 340.586 12.6162C340.528 12.4745 340.498 12.3225 340.498 12.169C340.498 12.0155 340.528 11.8635 340.586 11.7218C340.645 11.58 340.73 11.4512 340.838 11.3428Z" fill="white"/>
<path fill-rule="evenodd" clip-rule="evenodd" d="M331.25 19.1704C331.25 18.8609 331.372 18.5641 331.589 18.3452C331.805 18.1264 332.1 18.0034 332.406 18.0034H347.438C347.744 18.0034 348.038 18.1264 348.255 18.3452C348.472 18.5641 348.594 18.8609 348.594 19.1704C348.594 19.4799 348.472 19.7767 348.255 19.9956C348.038 20.2145 347.744 20.3374 347.438 20.3374H332.406C332.1 20.3374 331.805 20.2145 331.589 19.9956C331.372 19.7767 331.25 19.4799 331.25 19.1704Z" fill="white"/>
</svg>
