<svg width="30" height="30" viewBox="0 0 30 30" fill="none" xmlns="http://www.w3.org/2000/svg">
<circle cx="15" cy="15" r="15" fill="#EEEEEF"/>
<path d="M19.5263 11.4896C20.0882 11.4896 20.5437 11.0341 20.5437 10.4722C20.5437 9.91034 20.0882 9.45483 19.5263 9.45483C18.9644 9.45483 18.5089 9.91034 18.5089 10.4722C18.5089 11.0341 18.9644 11.4896 19.5263 11.4896Z" fill="#373D49"/>
<path d="M14.9992 10.6455C14.1382 10.6455 13.2964 10.9008 12.5805 11.3792C11.8646 11.8576 11.3065 12.5375 10.977 13.333C10.6475 14.1286 10.5613 15.0039 10.7293 15.8484C10.8973 16.693 11.3119 17.4687 11.9208 18.0775C12.5296 18.6864 13.3054 19.101 14.1499 19.269C14.9944 19.437 15.8698 19.3508 16.6653 19.0213C17.4608 18.6918 18.1407 18.1338 18.6191 17.4178C19.0975 16.7019 19.3528 15.8602 19.3528 14.9991C19.3528 13.8445 18.8941 12.7371 18.0777 11.9206C17.2612 11.1042 16.1539 10.6455 14.9992 10.6455ZM14.9992 17.8252C14.4403 17.8252 13.8939 17.6594 13.4291 17.3489C12.9644 17.0384 12.6022 16.597 12.3883 16.0806C12.1744 15.5642 12.1184 14.996 12.2274 14.4478C12.3365 13.8995 12.6056 13.396 13.0009 13.0007C13.3961 12.6055 13.8997 12.3364 14.4479 12.2273C14.9961 12.1183 15.5643 12.1742 16.0807 12.3881C16.5971 12.602 17.0385 12.9643 17.349 13.429C17.6596 13.8938 17.8253 14.4401 17.8253 14.9991C17.8253 15.7486 17.5276 16.4674 16.9976 16.9974C16.4676 17.5274 15.7487 17.8252 14.9992 17.8252Z" fill="#373D49"/>
<path d="M15 8.04923C17.2637 8.04923 17.5322 8.05771 18.4259 8.09869C18.9635 8.10507 19.4959 8.20377 20 8.39048C20.3658 8.53157 20.6979 8.74766 20.9751 9.02485C21.2523 9.30204 21.4684 9.6342 21.6095 9.99994C21.7962 10.5041 21.8949 11.0365 21.9013 11.5741C21.9423 12.4678 21.9508 12.7363 21.9508 15.0007C21.9508 17.2651 21.9423 17.5322 21.9013 18.4259C21.8949 18.9635 21.7962 19.4959 21.6095 20C21.4684 20.3658 21.2523 20.6979 20.9751 20.9751C20.6979 21.2523 20.3658 21.4684 20 21.6095C19.4959 21.7962 18.9635 21.8949 18.4259 21.9013C17.5322 21.9423 17.2637 21.9508 15 21.9508C12.7363 21.9508 12.4678 21.9423 11.5741 21.9013C11.0365 21.8949 10.5041 21.7962 9.99994 21.6095C9.6342 21.4684 9.30204 21.2523 9.02485 20.9751C8.74766 20.6979 8.53157 20.3658 8.39048 20C8.20377 19.4959 8.10507 18.9635 8.09869 18.4259C8.05771 17.5322 8.04923 17.2637 8.04923 15C8.04923 12.7363 8.05771 12.4678 8.09869 11.5741C8.10507 11.0365 8.20377 10.5041 8.39048 9.99994C8.53157 9.6342 8.74766 9.30204 9.02485 9.02485C9.30204 8.74766 9.6342 8.53157 9.99994 8.39048C10.5041 8.20377 11.0365 8.10507 11.5741 8.09869C12.4678 8.05771 12.7363 8.04923 15 8.04923ZM15 6.52173C12.6974 6.52173 12.4085 6.53162 11.5041 6.5726C10.801 6.5868 10.1053 6.7201 9.44673 6.96684C8.88344 7.18466 8.37187 7.51777 7.94482 7.94482C7.51777 8.37187 7.18466 8.88344 6.96684 9.44673C6.72002 10.1055 6.58672 10.8014 6.5726 11.5048C6.53162 12.4092 6.52173 12.6967 6.52173 15C6.52173 17.3033 6.53162 17.5915 6.5726 18.4959C6.5868 19.199 6.7201 19.8947 6.96684 20.5533C7.18466 21.1165 7.51777 21.6281 7.94482 22.0552C8.37187 22.4822 8.88344 22.8153 9.44673 23.0331C10.1055 23.28 10.8014 23.4133 11.5048 23.4274C12.4092 23.4684 12.6974 23.4783 15 23.4783C17.3025 23.4783 17.5915 23.4684 18.4959 23.4274C19.1992 23.4133 19.8951 23.28 20.554 23.0331C21.1173 22.8153 21.6288 22.4822 22.0559 22.0552C22.4829 21.6281 22.816 21.1165 23.0338 20.5533C23.2804 19.8944 23.4135 19.1985 23.4274 18.4952C23.4684 17.5908 23.4783 17.3033 23.4783 15C23.4783 12.6967 23.4684 12.4085 23.4274 11.5041C23.4132 10.801 23.2799 10.1053 23.0331 9.44673C22.8153 8.88344 22.4822 8.37187 22.0552 7.94482C21.6281 7.51777 21.1165 7.18466 20.5533 6.96684C19.8944 6.72026 19.1985 6.5872 18.4952 6.5733C17.5908 6.53091 17.3033 6.52173 15 6.52173Z" fill="#373D49"/>
</svg>
