<svg width="30" height="30" viewBox="0 0 30 30" fill="none" xmlns="http://www.w3.org/2000/svg">
<circle cx="15" cy="15" r="15" fill="#EEEEEF"/>
<path d="M8.55964 10.5976C9.68516 10.5976 10.5976 9.68516 10.5976 8.55964C10.5976 7.43413 9.68516 6.52173 8.55964 6.52173C7.43413 6.52173 6.52173 7.43413 6.52173 8.55964C6.52173 9.68516 7.43413 10.5976 8.55964 10.5976Z" fill="#373D49"/>
<path d="M12.5222 12.1422V23.4486H16.0327V17.8573C16.0327 16.382 16.3102 14.9532 18.1395 14.9532C19.9437 14.9532 19.966 16.64 19.966 17.9505V23.4495H23.4783V17.2491C23.4783 14.2034 22.8226 11.8628 19.2628 11.8628C17.5537 11.8628 16.408 12.8007 15.9395 13.6883H15.892V12.1422H12.5222ZM6.80151 12.1422H10.3176V23.4486H6.80151V12.1422Z" fill="#373D49"/>
</svg>
