<svg width="94" height="54" viewBox="0 0 94 54" fill="none" xmlns="http://www.w3.org/2000/svg">
<path d="M70.6767 53.6415C69.9913 53.6371 69.418 53.3172 68.8563 52.7389L69.0568 51.6379C69.6047 52.1909 70.1918 52.6216 70.6919 52.623C71.1595 52.6245 71.8334 52.2973 71.8378 51.4041C71.8443 49.714 68.7694 49.9101 68.7803 47.4368C68.7854 46.173 69.8291 45.2732 70.9185 45.2769C71.6185 45.2798 72.094 45.5758 72.6666 46.2381L72.3068 47.1682C71.929 46.7383 71.4295 46.2953 70.9395 46.2931C70.3148 46.2902 69.8349 46.828 69.8342 47.4266C69.8248 49.043 72.9004 48.8497 72.8909 51.3361C72.8844 52.7917 71.7668 53.6458 70.6767 53.6415Z" fill="#BBD422"/>
<path d="M77.2657 47.6581C77.2685 46.7475 76.8183 46.3175 76.2552 46.3161C75.692 46.3132 75.2368 46.7395 75.2331 47.6472L75.2252 49.4829L77.2577 49.4915L77.2657 47.6581ZM75.2107 53.5609L74.1821 53.558L74.2053 47.6436C74.2104 46.1221 75.1332 45.2948 76.2588 45.2998C77.3858 45.3042 78.3022 46.1395 78.2964 47.6588L78.2725 53.5725L77.2418 53.5703L77.2541 50.5078L75.223 50.5006L75.2107 53.5609Z" fill="#BBD422"/>
<path d="M83.1902 45.423L84.1073 45.428L84.0755 53.5979L83.3155 53.5943L80.9268 48.1706L80.9037 53.5834L79.9858 53.5798L80.017 45.4121L80.777 45.415L83.1678 50.8372L83.1902 45.423Z" fill="#BBD422"/>
<path d="M85.1055 46.4612L85.1113 45.4326L89.6055 45.45L89.6019 46.4793L87.8633 46.472L87.8343 53.6112L86.818 53.6076L86.847 46.4684L85.1055 46.4612Z" fill="#BBD422"/>
<path d="M91.5449 44.7354L91.2626 44.4408L93.1475 42L94.0001 42.8592L91.5449 44.7354ZM90.609 45.4549L93.6708 45.4672L93.6679 46.495L91.6354 46.487L91.626 48.521L93.6592 48.5275L93.6541 49.5568L91.6231 49.5481L91.6086 52.6107L93.6433 52.6186L93.6382 53.6342L90.5757 53.6233L90.609 45.4549Z" fill="#BBD422"/>
<path d="M4.04518 53.4739C3.35971 53.471 2.78499 53.1518 2.22691 52.5735L2.42741 51.474C2.97462 52.0241 3.55949 52.4555 4.06183 52.457C4.5258 52.4599 5.19824 52.1327 5.20259 51.2402C5.20982 49.5537 2.14005 49.7477 2.15091 47.2787C2.1567 46.0192 3.19902 45.1187 4.28694 45.1245C4.98326 45.1274 5.45954 45.4228 6.03137 46.0829L5.6738 47.0123C5.29669 46.5816 4.79652 46.1401 4.30721 46.1372C3.68399 46.135 3.20336 46.6714 3.20264 47.2707C3.1954 48.8841 6.26444 48.6901 6.25358 51.17C6.24996 52.6271 5.13238 53.4783 4.04518 53.4739Z" fill="#BBD422"/>
<path d="M8.79565 45.2412L8.77175 51.1585C8.76669 52.0495 9.21836 52.4788 9.78006 52.4817C10.3425 52.4831 10.7978 52.0604 10.8007 51.1672L10.8245 45.2498L11.8509 45.2535L11.8292 51.1708C11.8213 52.6713 10.9027 53.5015 9.77716 53.4972C8.65522 53.4921 7.74102 52.6561 7.74464 51.1541L7.76925 45.2368L8.79565 45.2412Z" fill="#BBD422"/>
<path d="M14.8099 49.3463L15.6148 49.3492C16.4725 49.3535 17.1486 48.6739 17.1515 47.8284C17.1558 46.9736 16.4848 46.299 15.6278 46.2954L14.8229 46.2925L14.8099 49.3463ZM14.7932 53.4186L13.7661 53.4157L13.7994 45.2617L15.6329 45.2675C17.0378 45.274 18.1837 46.4264 18.1786 47.8335C18.1721 49.2399 17.0183 50.372 15.6112 50.3655L14.8048 50.3633L14.7932 53.4186Z" fill="#BBD422"/>
<path d="M19.4908 45.2842L22.5483 45.2965L22.5432 46.3222L20.5129 46.3164L20.5056 48.3445L22.5353 48.3518L22.5309 49.3782L20.5006 49.3695L20.4875 52.4277L22.5193 52.4364L22.5135 53.4497L19.4575 53.4381L19.4908 45.2842Z" fill="#BBD422"/>
<path d="M25.4525 49.3902L26.0655 49.3924C26.9081 49.3953 27.595 48.7149 27.5979 47.8709C27.6008 47.016 26.9189 46.3414 26.0771 46.3371L25.464 46.3349L25.4525 49.3902ZM28.8733 53.4755L27.7709 53.4712L26.5252 50.3732C26.3782 50.3963 26.219 50.4094 26.0605 50.4079L25.4481 50.4058L25.4358 53.461L24.4087 53.456L24.4405 45.3027L26.0807 45.31C27.4843 45.3158 28.6178 46.4688 28.6134 47.8745C28.6084 48.7561 28.1531 49.5241 27.4785 49.9845L28.8733 53.4755Z" fill="#BBD422"/>
<path d="M31.3241 53.485L30.3447 53.4821L30.3795 45.3281L31.382 45.3325L32.9187 49.2868L34.4742 45.3455L35.4774 45.3484L35.4448 53.5016L34.4785 53.4987L34.501 47.8015L33.007 51.561L32.7992 51.5596L31.3465 47.7884L31.3241 53.485Z" fill="#BBD422"/>
<path d="M40.5237 47.6193C40.5288 46.7138 40.0764 46.2846 39.5154 46.2817C38.9523 46.2788 38.4977 46.7066 38.4941 47.6106L38.4876 49.4434L40.5165 49.4513L40.5237 47.6193ZM38.4717 53.5142L37.4424 53.5091L37.4663 47.607C37.4721 46.0906 38.3935 45.2633 39.5183 45.2676C40.6439 45.2705 41.5566 46.1065 41.5494 47.6229L41.5248 53.5272L40.4991 53.5236L40.5114 50.4676L38.4818 50.4589L38.4717 53.5142Z" fill="#BBD422"/>
<path d="M44.554 49.4674L45.1635 49.4703C46.0082 49.4732 46.6958 48.792 46.6995 47.9481C46.7023 47.0932 46.0198 46.4186 45.178 46.4157L44.5678 46.4128L44.554 49.4674ZM47.9712 53.5527L46.8717 53.5491L45.626 50.4525C45.4784 50.4742 45.3191 50.4858 45.1613 50.4858L44.5504 50.4822L44.5381 53.5382L43.5103 53.5339L43.5428 45.3813L45.1816 45.3893C46.5873 45.3929 47.7215 46.5474 47.7157 47.9531C47.7107 48.834 47.2568 49.6013 46.5807 50.0624L47.9712 53.5527Z" fill="#BBD422"/>
<path d="M51.243 45.3154C52.2433 45.3198 52.8021 46.0183 53.1908 46.8746L52.5401 47.4109C52.3099 46.9216 51.956 46.4425 51.3342 46.4396C50.4185 46.4359 50.0096 47.7671 50.0031 49.4891C49.9951 51.2009 50.3939 52.5494 51.3103 52.553C51.9328 52.5545 52.2897 52.0674 52.5234 51.5795L53.1691 52.1318C52.7746 52.9859 52.21 53.6677 51.2068 53.6641C49.6672 53.6576 48.8666 51.759 48.8761 49.484C48.8855 47.2025 49.7012 45.3089 51.243 45.3154Z" fill="#BBD422"/>
<path d="M57.3231 48.4939L57.3347 45.4378L58.3625 45.4407L58.33 53.5947L57.3028 53.5911L57.3188 49.5188L55.2899 49.5108L55.2747 53.5824L54.2461 53.5795L54.2794 45.4248L55.3072 45.4284L55.2935 48.4852L57.3231 48.4939Z" fill="#BBD422"/>
<path d="M61.2759 44.7317L60.998 44.4379L62.8778 42L63.729 42.8585L61.2759 44.7317ZM60.3451 45.4498L63.4018 45.4628L63.3967 46.4885L61.3693 46.4812L61.3599 48.5101L63.3873 48.5174L63.3844 49.5438L61.3563 49.5358L61.344 52.5933L63.3729 52.6012L63.3685 53.6161L60.3125 53.603L60.3451 45.4498Z" fill="#BBD422"/>
<path d="M11.8851 18.9081C8.48701 18.9081 5.84189 22.6814 5.84189 27.2504C5.84189 31.8202 8.48787 35.5986 11.8851 35.5986C15.2823 35.5986 17.9762 31.8202 17.9762 27.2504C17.9771 22.6814 15.2823 18.9081 11.8851 18.9081ZM21.6732 40.2199L19.5772 36.2967C17.4811 39.0798 14.5713 40.2199 11.2229 40.2199C4.98102 40.2199 0.10022 34.7557 0 27.2504C0 19.7519 4.99216 13.7378 11.2349 13.7378C14.5833 13.7378 17.4811 15.4261 19.5772 18.2126L21.6732 14.2843H23.5697V40.2199H21.6732Z" fill="#1A1A1A"/>
<path d="M39.748 40.2199H37.8515L27.0886 14.2852H32.981L38.8237 28.6937L44.6151 14.2852H50.5109L39.748 40.2199Z" fill="#1A1A1A"/>
<path d="M78.5606 1.9453L78.5623 1.93844C77.071 0.725525 75.1865 0 73.1521 0C68.2996 0 64.3661 3.91629 64.3661 8.74313C64.3661 10.7064 65.0531 12.5095 66.2087 13.9452C67.2768 13.9332 68.1942 14.1679 68.8915 14.4445C67.0464 13.1794 65.8412 11.1013 65.8412 8.74313C65.8412 4.76602 69.0816 1.54099 73.0793 1.54099C73.6506 1.54099 74.2083 1.61123 74.7419 1.74143C73.804 2.33076 73.1787 3.36808 73.1787 4.5553C73.1787 6.34384 74.6777 7.7829 76.5228 7.7829C78.3233 7.7829 79.8223 6.34384 79.8223 4.5553C79.8223 3.49742 79.3212 2.55604 78.5606 1.9453Z" fill="#BBD422"/>
<path d="M62.8645 19.0331C60.9098 20.0644 59.4159 22.1622 59.4159 24.696V40.2198H53.8764V14.2851H55.7737L57.8715 18.0626C59.7166 15.4792 62.6238 13.9553 65.8608 13.7403C68.5282 13.5638 70.3596 15.0072 70.3596 15.0072L68.0931 19.2944C68.0922 19.2935 65.7778 17.4921 62.8645 19.0331Z" fill="#1A1A1A"/>
<path d="M79.2894 14.2742H73.7439V40.2115H79.2894V14.2742Z" fill="#1A1A1A"/>
<path d="M93.2268 1.56689H87.6855V40.2201H93.2268V1.56689Z" fill="#1A1A1A"/>
</svg>
