<svg width="68" height="52" viewBox="0 0 68 52" fill="none" xmlns="http://www.w3.org/2000/svg">
<path fill-rule="evenodd" clip-rule="evenodd" d="M62.4809 0.210449H4.57183C2.04691 0.210449 6.10352e-05 2.24804 6.10352e-05 4.76153V47.2383C6.10352e-05 49.7518 2.04691 51.7894 4.57183 51.7894H62.4809C65.0058 51.7894 67.0527 49.7518 67.0527 47.2383V4.76153C67.0527 2.24804 65.0058 0.210449 62.4809 0.210449ZM62.4809 44.0227L50.3809 31.9775C49.4802 31.142 48.0767 31.1667 47.2062 32.0333C46.3357 32.8998 46.3109 34.297 47.1502 35.1936L59.2501 47.2388H7.80248L19.9024 35.1936C20.7417 34.297 20.7169 32.8998 19.8464 32.0333C18.9759 31.1667 17.5724 31.142 16.6717 31.9775L4.57176 44.0227V14.8199L32.0024 35.406C32.8151 36.0128 33.9327 36.0128 34.7454 35.406L62.4504 14.8047L62.4809 44.0227ZM62.4809 4.76141V9.13045L33.4196 30.7481L4.57176 9.13045V4.76141H62.4809Z" fill="#BBD422"/>
</svg>
