<svg width="30" height="30" viewBox="0 0 30 30" fill="none" xmlns="http://www.w3.org/2000/svg">
<circle cx="15" cy="15" r="15" fill="#EEEEEF"/>
<path d="M15.2609 5.21729C9.52173 5.21729 6.52173 8.86946 6.52173 12.9129C6.52173 14.8695 7.56521 16.826 9.26086 17.8695C9.7826 18.1303 9.65216 17.8695 10.0435 16.3042C10.0435 16.1738 10.0435 16.0434 9.91303 15.9129C7.56521 13.0434 9.52173 7.43468 15 7.43468C22.9565 7.43468 21.3913 18.3912 16.4348 18.3912C15.3913 18.5216 14.4783 17.739 14.4783 16.6955V16.1738C15 14.739 15.3913 13.4347 15.5217 11.9999C15.5217 9.26076 11.4783 9.65207 11.4783 13.3042C11.4783 13.9564 11.6087 14.6086 11.8696 15.1303C11.8696 15.1303 10.5652 20.4782 10.3043 21.3912C10.0435 22.9564 10.1739 24.5216 10.4348 25.9564C10.3043 26.0869 10.4348 26.0869 10.4348 26.0869H10.5652C11.4783 24.7825 12.2609 23.4782 12.7826 22.0434C12.913 21.3912 13.5652 19.0434 13.5652 19.0434C14.2174 19.9564 15.3913 20.4782 16.5652 20.4782C20.6087 20.4782 23.4783 16.9564 23.4783 12.6521C23.4783 8.34772 19.8261 5.21729 15.2609 5.21729Z" fill="#373D49"/>
</svg>
