<svg xmlns:xlink="http://www.w3.org/1999/xlink" width="25" height="26" viewBox="0 0 25 26" fill="none" xmlns="http://www.w3.org/2000/svg"><path fill-rule="evenodd" clip-rule="evenodd" d="M18.9418 16.5608C20.5909 14.5121 21.3681 11.9349 21.1152 9.3536C20.8624 6.7723 19.5986 4.38076 17.5809 2.66552C15.5633 0.95027 12.9432 0.0401684 10.2539 0.120361C7.56458 0.200554 5.00797 1.26502 3.10419 3.0972C1.19875 4.93065 0.0905108 7.39524 0.0053032 9.98874C-0.0799044 12.5822 0.864337 15.1095 2.64561 17.0554C4.42688 19.0013 6.91111 20.2195 9.59208 20.4617C12.273 20.7039 14.9489 19.9519 17.0745 18.3589L17.1314 18.4162L22.7412 23.8233C22.8641 23.9417 23.0099 24.0357 23.1705 24.0997C23.331 24.1638 23.5031 24.1968 23.6768 24.1968C23.8506 24.1968 24.0226 24.1638 24.1832 24.0997C24.3437 24.0357 24.4896 23.9417 24.6124 23.8233C24.7353 23.7049 24.8328 23.5644 24.8993 23.4097C24.9658 23.255 25 23.0892 25 22.9217C25 22.7543 24.9658 22.5885 24.8993 22.4338C24.8328 22.2791 24.7353 22.1385 24.6124 22.0201L19.0013 16.6143C18.982 16.5959 18.9621 16.5781 18.9418 16.5608ZM16.1964 4.90041C16.9431 5.60829 17.5369 6.45162 17.9436 7.38176C18.3504 8.31189 18.562 9.31043 18.5662 10.3198C18.5705 11.3291 18.3673 12.3293 17.9685 13.2626C17.5696 14.1959 16.9829 15.0438 16.2423 15.7575C15.5016 16.4713 14.6217 17.0366 13.6532 17.421C12.6846 17.8053 11.6467 18.0011 10.5993 17.997C9.55189 17.9929 8.51567 17.789 7.55043 17.397C6.5852 17.0051 5.71004 16.4328 4.97545 15.7133C3.50743 14.2755 2.68849 12.3368 2.69701 10.3198C2.70554 8.30269 3.54083 6.37057 5.02096 4.94426C6.50108 3.51796 8.50612 2.71304 10.5993 2.70482C12.6925 2.69661 14.7043 3.48577 16.1964 4.90041Z" fill="#BBD422"></path></svg>