<svg xmlns:xlink="http://www.w3.org/1999/xlink" width="26" height="20" viewBox="0 0 26 20" fill="none" xmlns="http://www.w3.org/2000/svg"><path d="M0.757135 2.11819C0.757135 1.40803 1.33283 0.83233 2.04299 0.83233H17.2895C18.7099 0.83233 19.8613 1.98372 19.8613 3.40404V16.0789C19.8613 16.3832 19.6145 16.63 19.3102 16.63H2.04299C1.33283 16.63 0.757135 16.0543 0.757135 15.3441V2.11819Z" stroke="#FFFFFF" stroke-width="1.10216px" fill="none"></path><mask id="path-2-inside-10" fill="#FFFFFF"><path d="M16.5547 4.50587C16.5547 3.99861 16.9659 3.5874 17.4732 3.5874H21.2389C23.8259 3.5874 25.9231 5.68458 25.9231 8.27158V16.6296C25.9231 16.934 25.6763 17.1807 25.372 17.1807H17.1058C16.8014 17.1807 16.5547 16.934 16.5547 16.6296V4.50587Z" fill="#FFFFFF"></path></mask><path d="M16.5547 4.50587C16.5547 3.99861 16.9659 3.5874 17.4732 3.5874H21.2389C23.8259 3.5874 25.9231 5.68458 25.9231 8.27158V16.6296C25.9231 16.934 25.6763 17.1807 25.372 17.1807H17.1058C16.8014 17.1807 16.5547 16.934 16.5547 16.6296V4.50587Z" fill="#373D49" stroke="#FFFFFF" stroke-width="2.20432px" mask="url(#path-2-inside-10)"></path><mask id="path-3-inside-20" fill="#FFFFFF"><rect x="19.1265" y="7.07788" width="6.79666" height="4.04126" rx="0.734774" fill="#FFFFFF"></rect></mask><rect x="19.1265" y="7.07788" width="6.79666" height="4.04126" rx="0.734774" stroke="#FFFFFF" stroke-width="2.20432px" mask="url(#path-3-inside-20)" fill="none"></rect><circle cx="6.63518" cy="16.8133" r="2.02063" fill="#373D49" stroke="#FFFFFF" stroke-width="1.10216px"></circle><circle cx="20.4118" cy="16.8133" r="2.02063" fill="#373D49" stroke="#FFFFFF" stroke-width="1.10216px"></circle></svg>