<svg xmlns:xlink="http://www.w3.org/1999/xlink" width="24" height="24" viewBox="0 0 24 24" fill="none" xmlns="http://www.w3.org/2000/svg"><path fill-rule="evenodd" clip-rule="evenodd" d="M6.02002 7.42909C6.02002 3.41928 8.73578 0 12.25 0C15.7643 0 18.48 3.41928 18.48 7.42909C18.48 11.4389 15.7643 14.8582 12.25 14.8582C8.74181 14.8582 6.02002 11.4392 6.02002 7.42909ZM12.25 0.96C9.42776 0.96 6.98002 3.77174 6.98002 7.42909C6.98002 11.0861 9.43323 13.8982 12.25 13.8982C15.0723 13.8982 17.52 11.0864 17.52 7.42909C17.52 3.77174 15.0723 0.96 12.25 0.96Z" fill="#373D49"></path><path fill-rule="evenodd" clip-rule="evenodd" d="M6.78176 15.1246C6.82148 15.1201 6.85395 15.1523 6.85395 15.1923V15.8642C6.85395 15.9876 6.76264 16.0936 6.641 16.1148C6.47481 16.1437 6.23715 16.1923 5.95214 16.2701C5.38041 16.4262 4.62815 16.6973 3.88183 17.1557C2.40731 18.0614 0.941176 19.7008 0.941176 22.7274C0.941176 22.8636 1.07099 23.0399 1.3142 23.0399H22.6858C22.929 23.0399 23.0588 22.8636 23.0588 22.7274C23.0588 19.7008 21.5927 18.0614 20.1182 17.1557C19.3718 16.6973 18.6196 16.4262 18.0479 16.2701C17.7628 16.1923 17.5252 16.1437 17.359 16.1148C17.2374 16.0936 17.1461 15.9876 17.1461 15.8642V15.1923C17.1461 15.1523 17.1785 15.1201 17.2182 15.1246L17.219 15.1247C17.2369 15.1266 17.2601 15.1294 17.288 15.133C17.3441 15.1404 17.4215 15.1518 17.5172 15.1684C17.7086 15.2017 17.9749 15.2564 18.2912 15.3427C18.9222 15.515 19.7619 15.8162 20.6037 16.3333C22.3054 17.3785 24 19.3028 24 22.7274C24 23.4666 23.3744 23.9999 22.6858 23.9999H1.3142C0.625588 23.9999 0 23.4666 0 22.7274C0 19.3028 1.69461 17.3785 3.3963 16.3333C4.23809 15.8162 5.0778 15.515 5.70875 15.3427C6.02508 15.2564 6.29143 15.2017 6.4828 15.1684C6.57851 15.1518 6.65592 15.1404 6.71195 15.133C6.7399 15.1294 6.76308 15.1266 6.78101 15.1247L6.78176 15.1246Z" fill="#373D49"></path></svg>